<?xml version='1.0' encoding='utf-8'?>
<svg xmlns="http://www.w3.org/2000/svg" viewBox="0 0 1000 1000" width="1000" height="1000" version="1.1">
  <title>pdb2reaction 03 / K03 / 夜の海 × ターコイズ</title>
  <defs>
    <mask id="icon-shadow-mask" maskUnits="userSpaceOnUse" maskContentUnits="userSpaceOnUse" x="0" y="0" width="1000" height="1000" style="mask-type:luminance" color-interpolation="sRGB">
      <rect width="1000" height="1000" fill="white" />
      <rect x="570" y="515" width="385" height="225" fill="black" />
      <g fill="white" id="icon-shadow-dots">
        <circle cx="522.000000" cy="468.517864" r="13.600000" />
        <circle cx="542.000000" cy="468.517864" r="13.600000" />
        <circle cx="562.000000" cy="468.517864" r="13.600000" />
        <circle cx="582.000000" cy="468.517864" r="13.600000" />
        <circle cx="602.000000" cy="468.517864" r="13.600000" />
        <circle cx="622.000000" cy="468.517864" r="13.600000" />
        <circle cx="642.000000" cy="468.517864" r="12.522978" />
        <circle cx="662.000000" cy="468.517864" r="8.663761" />
        <circle cx="682.000000" cy="468.517864" r="4.435077" />
        <circle cx="702.000000" cy="468.517864" r="2.401308" />
        <circle cx="722.000000" cy="468.517864" r="4.229802" />
        <circle cx="742.000000" cy="468.517864" r="7.981223" />
        <circle cx="762.000000" cy="468.517864" r="4.009230" />
        <circle cx="782.000000" cy="468.517864" r="2.404667" />
        <circle cx="802.000000" cy="468.517864" r="3.980320" />
        <circle cx="822.000000" cy="468.517864" r="6.157645" />
        <circle cx="842.000000" cy="468.517864" r="6.645746" />
        <circle cx="862.000000" cy="468.517864" r="6.645746" />
        <circle cx="882.000000" cy="468.517864" r="6.645746" />
        <circle cx="902.000000" cy="468.517864" r="6.653217" />
        <circle cx="922.000000" cy="468.517864" r="7.548912" />
        <circle cx="942.000000" cy="468.517864" r="9.772955" />
        <circle cx="962.000000" cy="468.517864" r="12.387179" />
        <circle cx="982.000000" cy="468.517864" r="13.600000" />
        <circle cx="512.000000" cy="485.838372" r="13.600000" />
        <circle cx="532.000000" cy="485.838372" r="13.600000" />
        <circle cx="552.000000" cy="485.838372" r="13.600000" />
        <circle cx="572.000000" cy="485.838372" r="13.600000" />
        <circle cx="592.000000" cy="485.838372" r="13.600000" />
        <circle cx="612.000000" cy="485.838372" r="13.600000" />
        <circle cx="632.000000" cy="485.838372" r="13.426539" />
        <circle cx="652.000000" cy="485.838372" r="10.518450" />
        <circle cx="672.000000" cy="485.838372" r="6.077233" />
        <circle cx="692.000000" cy="485.838372" r="2.792881" />
        <circle cx="712.000000" cy="485.838372" r="3.155144" />
        <circle cx="732.000000" cy="485.838372" r="6.811162" />
        <circle cx="752.000000" cy="485.838372" r="5.272394" />
        <circle cx="772.000000" cy="485.838372" r="2.521538" />
        <circle cx="792.000000" cy="485.838372" r="3.628095" />
        <circle cx="812.000000" cy="485.838372" r="7.323584" />
        <circle cx="832.000000" cy="485.838372" r="9.728776" />
        <circle cx="852.000000" cy="485.838372" r="9.769178" />
        <circle cx="872.000000" cy="485.838372" r="9.769178" />
        <circle cx="892.000000" cy="485.838372" r="9.769178" />
        <circle cx="912.000000" cy="485.838372" r="9.979924" />
        <circle cx="932.000000" cy="485.838372" r="11.171563" />
        <circle cx="952.000000" cy="485.838372" r="12.824834" />
        <circle cx="972.000000" cy="485.838372" r="13.600000" />
        <circle cx="992.000000" cy="485.838372" r="13.600000" />
        <circle cx="522.000000" cy="503.158880" r="13.600000" />
        <circle cx="542.000000" cy="503.158880" r="13.600000" />
        <circle cx="562.000000" cy="503.158880" r="13.600000" />
        <circle cx="582.000000" cy="503.158880" r="13.600000" />
        <circle cx="602.000000" cy="503.158880" r="13.600000" />
        <circle cx="622.000000" cy="503.158880" r="13.600000" />
        <circle cx="642.000000" cy="503.158880" r="12.303800" />
        <circle cx="662.000000" cy="503.158880" r="8.273816" />
        <circle cx="682.000000" cy="503.158880" r="4.082022" />
        <circle cx="702.000000" cy="503.158880" r="2.424361" />
        <circle cx="722.000000" cy="503.158880" r="4.803877" />
        <circle cx="742.000000" cy="503.158880" r="7.362103" />
        <circle cx="762.000000" cy="503.158880" r="3.461568" />
        <circle cx="782.000000" cy="503.158880" r="2.611163" />
        <circle cx="802.000000" cy="503.158880" r="5.605559" />
        <circle cx="822.000000" cy="503.158880" r="10.056250" />
        <circle cx="842.000000" cy="503.158880" r="12.383186" />
        <circle cx="862.000000" cy="503.158880" r="12.383186" />
        <circle cx="882.000000" cy="503.158880" r="12.383186" />
        <circle cx="902.000000" cy="503.158880" r="12.386597" />
        <circle cx="922.000000" cy="503.158880" r="12.762353" />
        <circle cx="942.000000" cy="503.158880" r="13.433251" />
        <circle cx="962.000000" cy="503.158880" r="13.600000" />
        <circle cx="982.000000" cy="503.158880" r="13.600000" />
        <circle cx="512.000000" cy="520.479388" r="13.600000" />
        <circle cx="532.000000" cy="520.479388" r="13.600000" />
        <circle cx="552.000000" cy="520.479388" r="13.600000" />
        <circle cx="572.000000" cy="520.479388" r="13.600000" />
        <circle cx="592.000000" cy="520.479388" r="13.600000" />
        <circle cx="612.000000" cy="520.479388" r="13.600000" />
        <circle cx="632.000000" cy="520.479388" r="13.415349" />
        <circle cx="652.000000" cy="520.479388" r="10.477587" />
        <circle cx="672.000000" cy="520.479388" r="6.029592" />
        <circle cx="692.000000" cy="520.479388" r="2.768209" />
        <circle cx="712.000000" cy="520.479388" r="3.196108" />
        <circle cx="732.000000" cy="520.479388" r="6.910561" />
        <circle cx="752.000000" cy="520.479388" r="5.196088" />
        <circle cx="772.000000" cy="520.479388" r="2.495648" />
        <circle cx="792.000000" cy="520.479388" r="3.757771" />
        <circle cx="812.000000" cy="520.479388" r="7.817420" />
        <circle cx="832.000000" cy="520.479388" r="11.984943" />
        <circle cx="852.000000" cy="520.479388" r="13.590922" />
        <circle cx="872.000000" cy="520.479388" r="13.590922" />
        <circle cx="892.000000" cy="520.479388" r="13.590922" />
        <circle cx="912.000000" cy="520.479388" r="13.598395" />
        <circle cx="932.000000" cy="520.479388" r="13.600000" />
        <circle cx="952.000000" cy="520.479388" r="13.600000" />
        <circle cx="972.000000" cy="520.479388" r="13.600000" />
        <circle cx="992.000000" cy="520.479388" r="13.600000" />
        <circle cx="522.000000" cy="537.799896" r="13.600000" />
        <circle cx="542.000000" cy="537.799896" r="13.600000" />
        <circle cx="562.000000" cy="537.799896" r="13.600000" />
        <circle cx="582.000000" cy="537.799896" r="13.600000" />
        <circle cx="602.000000" cy="537.799896" r="13.600000" />
        <circle cx="622.000000" cy="537.799896" r="13.600000" />
        <circle cx="642.000000" cy="537.799896" r="12.303800" />
        <circle cx="662.000000" cy="537.799896" r="8.273816" />
        <circle cx="682.000000" cy="537.799896" r="4.082022" />
        <circle cx="702.000000" cy="537.799896" r="2.424361" />
        <circle cx="722.000000" cy="537.799896" r="4.803877" />
        <circle cx="742.000000" cy="537.799896" r="7.362103" />
        <circle cx="762.000000" cy="537.799896" r="3.461568" />
        <circle cx="782.000000" cy="537.799896" r="2.611163" />
        <circle cx="802.000000" cy="537.799896" r="5.605559" />
        <circle cx="822.000000" cy="537.799896" r="10.056250" />
        <circle cx="842.000000" cy="537.799896" r="13.266393" />
        <circle cx="862.000000" cy="537.799896" r="13.600000" />
        <circle cx="882.000000" cy="537.799896" r="13.600000" />
        <circle cx="902.000000" cy="537.799896" r="13.600000" />
        <circle cx="922.000000" cy="537.799896" r="13.600000" />
        <circle cx="942.000000" cy="537.799896" r="13.600000" />
        <circle cx="962.000000" cy="537.799896" r="13.600000" />
        <circle cx="982.000000" cy="537.799896" r="13.600000" />
        <circle cx="512.000000" cy="555.120404" r="13.600000" />
        <circle cx="532.000000" cy="555.120404" r="13.600000" />
        <circle cx="552.000000" cy="555.120404" r="13.600000" />
        <circle cx="572.000000" cy="555.120404" r="13.600000" />
        <circle cx="592.000000" cy="555.120404" r="13.600000" />
        <circle cx="612.000000" cy="555.120404" r="13.600000" />
        <circle cx="632.000000" cy="555.120404" r="13.415349" />
        <circle cx="652.000000" cy="555.120404" r="10.477587" />
        <circle cx="672.000000" cy="555.120404" r="6.029592" />
        <circle cx="692.000000" cy="555.120404" r="2.768209" />
        <circle cx="712.000000" cy="555.120404" r="3.196108" />
        <circle cx="732.000000" cy="555.120404" r="6.910561" />
        <circle cx="752.000000" cy="555.120404" r="5.196088" />
        <circle cx="772.000000" cy="555.120404" r="2.495648" />
        <circle cx="792.000000" cy="555.120404" r="3.757771" />
        <circle cx="812.000000" cy="555.120404" r="7.817420" />
        <circle cx="832.000000" cy="555.120404" r="11.984943" />
        <circle cx="852.000000" cy="555.120404" r="13.600000" />
        <circle cx="872.000000" cy="555.120404" r="13.600000" />
        <circle cx="892.000000" cy="555.120404" r="13.600000" />
        <circle cx="912.000000" cy="555.120404" r="13.600000" />
        <circle cx="932.000000" cy="555.120404" r="13.600000" />
        <circle cx="952.000000" cy="555.120404" r="13.600000" />
        <circle cx="972.000000" cy="555.120404" r="13.600000" />
        <circle cx="992.000000" cy="555.120404" r="13.600000" />
        <circle cx="522.000000" cy="572.440912" r="13.600000" />
        <circle cx="542.000000" cy="572.440912" r="13.600000" />
        <circle cx="562.000000" cy="572.440912" r="13.600000" />
        <circle cx="582.000000" cy="572.440912" r="13.600000" />
        <circle cx="602.000000" cy="572.440912" r="13.600000" />
        <circle cx="622.000000" cy="572.440912" r="13.600000" />
        <circle cx="642.000000" cy="572.440912" r="12.303800" />
        <circle cx="662.000000" cy="572.440912" r="8.273816" />
        <circle cx="682.000000" cy="572.440912" r="4.082022" />
        <circle cx="702.000000" cy="572.440912" r="2.424361" />
        <circle cx="722.000000" cy="572.440912" r="4.803877" />
        <circle cx="742.000000" cy="572.440912" r="7.362103" />
        <circle cx="762.000000" cy="572.440912" r="3.461568" />
        <circle cx="782.000000" cy="572.440912" r="2.611163" />
        <circle cx="802.000000" cy="572.440912" r="5.605559" />
        <circle cx="822.000000" cy="572.440912" r="10.056250" />
        <circle cx="842.000000" cy="572.440912" r="13.266393" />
        <circle cx="862.000000" cy="572.440912" r="13.600000" />
        <circle cx="882.000000" cy="572.440912" r="13.600000" />
        <circle cx="902.000000" cy="572.440912" r="13.600000" />
        <circle cx="922.000000" cy="572.440912" r="13.600000" />
        <circle cx="942.000000" cy="572.440912" r="13.600000" />
        <circle cx="962.000000" cy="572.440912" r="13.600000" />
        <circle cx="982.000000" cy="572.440912" r="13.600000" />
        <circle cx="512.000000" cy="589.761420" r="13.600000" />
        <circle cx="532.000000" cy="589.761420" r="13.600000" />
        <circle cx="552.000000" cy="589.761420" r="13.600000" />
        <circle cx="572.000000" cy="589.761420" r="13.600000" />
        <circle cx="592.000000" cy="589.761420" r="13.600000" />
        <circle cx="612.000000" cy="589.761420" r="13.600000" />
        <circle cx="632.000000" cy="589.761420" r="13.415349" />
        <circle cx="652.000000" cy="589.761420" r="10.477587" />
        <circle cx="672.000000" cy="589.761420" r="6.029592" />
        <circle cx="692.000000" cy="589.761420" r="2.768209" />
        <circle cx="712.000000" cy="589.761420" r="3.196108" />
        <circle cx="732.000000" cy="589.761420" r="6.910561" />
        <circle cx="752.000000" cy="589.761420" r="5.196088" />
        <circle cx="772.000000" cy="589.761420" r="2.495648" />
        <circle cx="792.000000" cy="589.761420" r="3.757771" />
        <circle cx="812.000000" cy="589.761420" r="7.817420" />
        <circle cx="832.000000" cy="589.761420" r="11.984943" />
        <circle cx="852.000000" cy="589.761420" r="13.600000" />
        <circle cx="872.000000" cy="589.761420" r="13.600000" />
        <circle cx="892.000000" cy="589.761420" r="13.600000" />
        <circle cx="912.000000" cy="589.761420" r="13.600000" />
        <circle cx="932.000000" cy="589.761420" r="13.600000" />
        <circle cx="952.000000" cy="589.761420" r="13.600000" />
        <circle cx="972.000000" cy="589.761420" r="13.600000" />
        <circle cx="992.000000" cy="589.761420" r="13.600000" />
        <circle cx="522.000000" cy="607.081929" r="13.600000" />
        <circle cx="542.000000" cy="607.081929" r="13.600000" />
        <circle cx="562.000000" cy="607.081929" r="13.600000" />
        <circle cx="582.000000" cy="607.081929" r="13.600000" />
        <circle cx="602.000000" cy="607.081929" r="13.600000" />
        <circle cx="622.000000" cy="607.081929" r="13.600000" />
        <circle cx="642.000000" cy="607.081929" r="12.303800" />
        <circle cx="662.000000" cy="607.081929" r="8.273816" />
        <circle cx="682.000000" cy="607.081929" r="4.082022" />
        <circle cx="702.000000" cy="607.081929" r="2.424361" />
        <circle cx="722.000000" cy="607.081929" r="4.803877" />
        <circle cx="742.000000" cy="607.081929" r="7.362103" />
        <circle cx="762.000000" cy="607.081929" r="3.461568" />
        <circle cx="782.000000" cy="607.081929" r="2.611163" />
        <circle cx="802.000000" cy="607.081929" r="5.605559" />
        <circle cx="822.000000" cy="607.081929" r="10.056250" />
        <circle cx="842.000000" cy="607.081929" r="13.266393" />
        <circle cx="862.000000" cy="607.081929" r="13.600000" />
        <circle cx="882.000000" cy="607.081929" r="13.600000" />
        <circle cx="902.000000" cy="607.081929" r="13.600000" />
        <circle cx="922.000000" cy="607.081929" r="13.600000" />
        <circle cx="942.000000" cy="607.081929" r="13.600000" />
        <circle cx="962.000000" cy="607.081929" r="13.600000" />
        <circle cx="982.000000" cy="607.081929" r="13.600000" />
        <circle cx="512.000000" cy="624.402437" r="13.600000" />
        <circle cx="532.000000" cy="624.402437" r="13.600000" />
        <circle cx="552.000000" cy="624.402437" r="13.600000" />
        <circle cx="572.000000" cy="624.402437" r="13.600000" />
        <circle cx="592.000000" cy="624.402437" r="13.600000" />
        <circle cx="612.000000" cy="624.402437" r="13.600000" />
        <circle cx="632.000000" cy="624.402437" r="13.415349" />
        <circle cx="652.000000" cy="624.402437" r="10.477587" />
        <circle cx="672.000000" cy="624.402437" r="6.029592" />
        <circle cx="692.000000" cy="624.402437" r="2.768209" />
        <circle cx="712.000000" cy="624.402437" r="3.196108" />
        <circle cx="732.000000" cy="624.402437" r="6.741705" />
        <circle cx="752.000000" cy="624.402437" r="5.196088" />
        <circle cx="772.000000" cy="624.402437" r="2.495648" />
        <circle cx="792.000000" cy="624.402437" r="3.757771" />
        <circle cx="812.000000" cy="624.402437" r="7.817420" />
        <circle cx="832.000000" cy="624.402437" r="11.984943" />
        <circle cx="852.000000" cy="624.402437" r="13.600000" />
        <circle cx="872.000000" cy="624.402437" r="13.600000" />
        <circle cx="892.000000" cy="624.402437" r="13.600000" />
        <circle cx="912.000000" cy="624.402437" r="13.600000" />
        <circle cx="932.000000" cy="624.402437" r="13.600000" />
        <circle cx="952.000000" cy="624.402437" r="13.600000" />
        <circle cx="972.000000" cy="624.402437" r="13.600000" />
        <circle cx="992.000000" cy="624.402437" r="13.600000" />
        <circle cx="522.000000" cy="641.722945" r="13.600000" />
        <circle cx="542.000000" cy="641.722945" r="13.600000" />
        <circle cx="562.000000" cy="641.722945" r="13.600000" />
        <circle cx="582.000000" cy="641.722945" r="13.600000" />
        <circle cx="602.000000" cy="641.722945" r="13.600000" />
        <circle cx="622.000000" cy="641.722945" r="13.600000" />
        <circle cx="642.000000" cy="641.722945" r="12.428910" />
        <circle cx="662.000000" cy="641.722945" r="8.523454" />
        <circle cx="682.000000" cy="641.722945" r="4.359070" />
        <circle cx="702.000000" cy="641.722945" r="2.404446" />
        <circle cx="722.000000" cy="641.722945" r="3.496956" />
        <circle cx="742.000000" cy="641.722945" r="4.141192" />
        <circle cx="762.000000" cy="641.722945" r="2.870492" />
        <circle cx="782.000000" cy="641.722945" r="2.784024" />
        <circle cx="802.000000" cy="641.722945" r="5.890569" />
        <circle cx="822.000000" cy="641.722945" r="10.263345" />
        <circle cx="842.000000" cy="641.722945" r="13.327873" />
        <circle cx="862.000000" cy="641.722945" r="13.600000" />
        <circle cx="882.000000" cy="641.722945" r="13.600000" />
        <circle cx="902.000000" cy="641.722945" r="13.600000" />
        <circle cx="922.000000" cy="641.722945" r="13.600000" />
        <circle cx="942.000000" cy="641.722945" r="13.600000" />
        <circle cx="962.000000" cy="641.722945" r="13.600000" />
        <circle cx="982.000000" cy="641.722945" r="13.600000" />
        <circle cx="512.000000" cy="659.043453" r="13.600000" />
        <circle cx="532.000000" cy="659.043453" r="13.600000" />
        <circle cx="552.000000" cy="659.043453" r="13.600000" />
        <circle cx="572.000000" cy="659.043453" r="13.600000" />
        <circle cx="592.000000" cy="659.043453" r="13.600000" />
        <circle cx="612.000000" cy="659.043453" r="13.600000" />
        <circle cx="632.000000" cy="659.043453" r="13.572651" />
        <circle cx="652.000000" cy="659.043453" r="11.344356" />
        <circle cx="672.000000" cy="659.043453" r="7.336098" />
        <circle cx="692.000000" cy="659.043453" r="3.871356" />
        <circle cx="712.000000" cy="659.043453" r="2.448116" />
        <circle cx="732.000000" cy="659.043453" r="2.512719" />
        <circle cx="752.000000" cy="659.043453" r="2.438114" />
        <circle cx="772.000000" cy="659.043453" r="2.749321" />
        <circle cx="792.000000" cy="659.043453" r="5.065027" />
        <circle cx="812.000000" cy="659.043453" r="8.995174" />
        <circle cx="832.000000" cy="659.043453" r="12.590108" />
        <circle cx="852.000000" cy="659.043453" r="13.600000" />
        <circle cx="872.000000" cy="659.043453" r="13.600000" />
        <circle cx="892.000000" cy="659.043453" r="13.600000" />
        <circle cx="912.000000" cy="659.043453" r="13.600000" />
        <circle cx="932.000000" cy="659.043453" r="13.600000" />
        <circle cx="952.000000" cy="659.043453" r="13.600000" />
        <circle cx="972.000000" cy="659.043453" r="13.600000" />
        <circle cx="992.000000" cy="659.043453" r="13.600000" />
        <circle cx="522.000000" cy="676.363961" r="13.600000" />
        <circle cx="542.000000" cy="676.363961" r="13.600000" />
        <circle cx="562.000000" cy="676.363961" r="13.600000" />
        <circle cx="582.000000" cy="676.363961" r="13.600000" />
        <circle cx="602.000000" cy="676.363961" r="13.600000" />
        <circle cx="622.000000" cy="676.363961" r="13.600000" />
        <circle cx="642.000000" cy="676.363961" r="13.340639" />
        <circle cx="662.000000" cy="676.363961" r="10.751906" />
        <circle cx="682.000000" cy="676.363961" r="7.188432" />
        <circle cx="702.000000" cy="676.363961" r="4.413862" />
        <circle cx="722.000000" cy="676.363961" r="3.113244" />
        <circle cx="742.000000" cy="676.363961" r="2.884528" />
        <circle cx="762.000000" cy="676.363961" r="3.468253" />
        <circle cx="782.000000" cy="676.363961" r="5.355310" />
        <circle cx="802.000000" cy="676.363961" r="8.599877" />
        <circle cx="822.000000" cy="676.363961" r="12.025583" />
        <circle cx="842.000000" cy="676.363961" r="13.600000" />
        <circle cx="862.000000" cy="676.363961" r="13.600000" />
        <circle cx="882.000000" cy="676.363961" r="13.600000" />
        <circle cx="902.000000" cy="676.363961" r="13.600000" />
        <circle cx="922.000000" cy="676.363961" r="13.600000" />
        <circle cx="942.000000" cy="676.363961" r="13.600000" />
        <circle cx="962.000000" cy="676.363961" r="13.600000" />
        <circle cx="982.000000" cy="676.363961" r="13.600000" />
        <circle cx="512.000000" cy="693.684469" r="13.600000" />
        <circle cx="532.000000" cy="693.684469" r="13.600000" />
        <circle cx="552.000000" cy="693.684469" r="13.600000" />
        <circle cx="572.000000" cy="693.684469" r="13.600000" />
        <circle cx="592.000000" cy="693.684469" r="13.600000" />
        <circle cx="612.000000" cy="693.684469" r="13.600000" />
        <circle cx="632.000000" cy="693.684469" r="13.600000" />
        <circle cx="652.000000" cy="693.684469" r="13.210643" />
        <circle cx="672.000000" cy="693.684469" r="10.881170" />
        <circle cx="692.000000" cy="693.684469" r="8.042208" />
        <circle cx="712.000000" cy="693.684469" r="5.951144" />
        <circle cx="732.000000" cy="693.684469" r="5.037137" />
        <circle cx="752.000000" cy="693.684469" r="5.261146" />
        <circle cx="772.000000" cy="693.684469" r="6.653556" />
        <circle cx="792.000000" cy="693.684469" r="9.140060" />
        <circle cx="812.000000" cy="693.684469" r="11.970253" />
        <circle cx="832.000000" cy="693.684469" r="13.583683" />
        <circle cx="852.000000" cy="693.684469" r="13.600000" />
        <circle cx="872.000000" cy="693.684469" r="13.600000" />
        <circle cx="892.000000" cy="693.684469" r="13.600000" />
        <circle cx="912.000000" cy="693.684469" r="13.600000" />
        <circle cx="932.000000" cy="693.684469" r="13.600000" />
        <circle cx="952.000000" cy="693.684469" r="13.600000" />
        <circle cx="972.000000" cy="693.684469" r="13.600000" />
        <circle cx="992.000000" cy="693.684469" r="13.600000" />
        <circle cx="522.000000" cy="711.004977" r="13.600000" />
        <circle cx="542.000000" cy="711.004977" r="13.600000" />
        <circle cx="562.000000" cy="711.004977" r="13.600000" />
        <circle cx="582.000000" cy="711.004977" r="13.600000" />
        <circle cx="602.000000" cy="711.004977" r="13.600000" />
        <circle cx="622.000000" cy="711.004977" r="13.600000" />
        <circle cx="642.000000" cy="711.004977" r="13.600000" />
        <circle cx="662.000000" cy="711.004977" r="13.334816" />
        <circle cx="682.000000" cy="711.004977" r="11.652884" />
        <circle cx="702.000000" cy="711.004977" r="9.676251" />
        <circle cx="722.000000" cy="711.004977" r="8.343602" />
        <circle cx="742.000000" cy="711.004977" r="8.022758" />
        <circle cx="762.000000" cy="711.004977" r="8.765515" />
        <circle cx="782.000000" cy="711.004977" r="10.427492" />
        <circle cx="802.000000" cy="711.004977" r="12.435529" />
        <circle cx="822.000000" cy="711.004977" r="13.593717" />
        <circle cx="842.000000" cy="711.004977" r="13.600000" />
        <circle cx="862.000000" cy="711.004977" r="13.600000" />
        <circle cx="882.000000" cy="711.004977" r="13.600000" />
        <circle cx="902.000000" cy="711.004977" r="13.600000" />
        <circle cx="922.000000" cy="711.004977" r="13.600000" />
        <circle cx="942.000000" cy="711.004977" r="13.600000" />
        <circle cx="962.000000" cy="711.004977" r="13.600000" />
        <circle cx="982.000000" cy="711.004977" r="13.600000" />
        <circle cx="512.000000" cy="728.325485" r="13.600000" />
        <circle cx="532.000000" cy="728.325485" r="13.600000" />
        <circle cx="552.000000" cy="728.325485" r="13.600000" />
        <circle cx="572.000000" cy="728.325485" r="13.600000" />
        <circle cx="592.000000" cy="728.325485" r="13.600000" />
        <circle cx="612.000000" cy="728.325485" r="13.600000" />
        <circle cx="632.000000" cy="728.325485" r="13.600000" />
        <circle cx="652.000000" cy="728.325485" r="13.600000" />
        <circle cx="672.000000" cy="728.325485" r="13.563838" />
        <circle cx="692.000000" cy="728.325485" r="12.729394" />
        <circle cx="712.000000" cy="728.325485" r="11.649094" />
        <circle cx="732.000000" cy="728.325485" r="11.049681" />
        <circle cx="752.000000" cy="728.325485" r="11.205507" />
        <circle cx="772.000000" cy="728.325485" r="12.053048" />
        <circle cx="792.000000" cy="728.325485" r="13.150956" />
        <circle cx="812.000000" cy="728.325485" r="13.600000" />
        <circle cx="832.000000" cy="728.325485" r="13.600000" />
        <circle cx="852.000000" cy="728.325485" r="13.600000" />
        <circle cx="872.000000" cy="728.325485" r="13.600000" />
        <circle cx="892.000000" cy="728.325485" r="13.600000" />
        <circle cx="912.000000" cy="728.325485" r="13.600000" />
        <circle cx="932.000000" cy="728.325485" r="13.600000" />
        <circle cx="952.000000" cy="728.325485" r="13.600000" />
        <circle cx="972.000000" cy="728.325485" r="13.600000" />
        <circle cx="992.000000" cy="728.325485" r="13.600000" />
        <circle cx="522.000000" cy="745.645993" r="13.600000" />
        <circle cx="542.000000" cy="745.645993" r="13.600000" />
        <circle cx="562.000000" cy="745.645993" r="13.600000" />
        <circle cx="582.000000" cy="745.645993" r="13.600000" />
        <circle cx="602.000000" cy="745.645993" r="13.600000" />
        <circle cx="622.000000" cy="745.645993" r="13.600000" />
        <circle cx="642.000000" cy="745.645993" r="13.600000" />
        <circle cx="662.000000" cy="745.645993" r="13.600000" />
        <circle cx="682.000000" cy="745.645993" r="13.600000" />
        <circle cx="702.000000" cy="745.645993" r="13.529739" />
        <circle cx="722.000000" cy="745.645993" r="13.236118" />
        <circle cx="742.000000" cy="745.645993" r="13.137424" />
        <circle cx="762.000000" cy="745.645993" r="13.350307" />
        <circle cx="782.000000" cy="745.645993" r="13.597008" />
        <circle cx="802.000000" cy="745.645993" r="13.600000" />
        <circle cx="822.000000" cy="745.645993" r="13.600000" />
        <circle cx="842.000000" cy="745.645993" r="13.600000" />
        <circle cx="862.000000" cy="745.645993" r="13.600000" />
        <circle cx="882.000000" cy="745.645993" r="13.600000" />
        <circle cx="902.000000" cy="745.645993" r="13.600000" />
        <circle cx="922.000000" cy="745.645993" r="13.600000" />
        <circle cx="942.000000" cy="745.645993" r="13.600000" />
        <circle cx="962.000000" cy="745.645993" r="13.600000" />
        <circle cx="982.000000" cy="745.645993" r="13.600000" />
        <circle cx="512.000000" cy="762.966501" r="13.600000" />
        <circle cx="532.000000" cy="762.966501" r="13.600000" />
        <circle cx="552.000000" cy="762.966501" r="13.600000" />
        <circle cx="572.000000" cy="762.966501" r="13.600000" />
        <circle cx="592.000000" cy="762.966501" r="13.600000" />
        <circle cx="612.000000" cy="762.966501" r="13.600000" />
        <circle cx="632.000000" cy="762.966501" r="13.600000" />
        <circle cx="652.000000" cy="762.966501" r="13.600000" />
        <circle cx="672.000000" cy="762.966501" r="13.600000" />
        <circle cx="692.000000" cy="762.966501" r="13.600000" />
        <circle cx="712.000000" cy="762.966501" r="13.600000" />
        <circle cx="732.000000" cy="762.966501" r="13.600000" />
        <circle cx="752.000000" cy="762.966501" r="13.600000" />
        <circle cx="772.000000" cy="762.966501" r="13.600000" />
        <circle cx="792.000000" cy="762.966501" r="13.600000" />
        <circle cx="812.000000" cy="762.966501" r="13.600000" />
        <circle cx="832.000000" cy="762.966501" r="13.600000" />
        <circle cx="852.000000" cy="762.966501" r="13.600000" />
        <circle cx="872.000000" cy="762.966501" r="13.600000" />
        <circle cx="892.000000" cy="762.966501" r="13.600000" />
        <circle cx="912.000000" cy="762.966501" r="13.600000" />
        <circle cx="932.000000" cy="762.966501" r="13.600000" />
        <circle cx="952.000000" cy="762.966501" r="13.600000" />
        <circle cx="972.000000" cy="762.966501" r="13.600000" />
        <circle cx="992.000000" cy="762.966501" r="13.600000" />
        <circle cx="522.000000" cy="780.287009" r="13.600000" />
        <circle cx="542.000000" cy="780.287009" r="13.600000" />
        <circle cx="562.000000" cy="780.287009" r="13.600000" />
        <circle cx="582.000000" cy="780.287009" r="13.600000" />
        <circle cx="602.000000" cy="780.287009" r="13.600000" />
        <circle cx="622.000000" cy="780.287009" r="13.600000" />
        <circle cx="642.000000" cy="780.287009" r="13.600000" />
        <circle cx="662.000000" cy="780.287009" r="13.600000" />
        <circle cx="682.000000" cy="780.287009" r="13.600000" />
        <circle cx="702.000000" cy="780.287009" r="13.600000" />
        <circle cx="722.000000" cy="780.287009" r="13.600000" />
        <circle cx="742.000000" cy="780.287009" r="13.600000" />
        <circle cx="762.000000" cy="780.287009" r="13.600000" />
        <circle cx="782.000000" cy="780.287009" r="13.600000" />
        <circle cx="802.000000" cy="780.287009" r="13.600000" />
        <circle cx="822.000000" cy="780.287009" r="13.600000" />
        <circle cx="842.000000" cy="780.287009" r="13.600000" />
        <circle cx="862.000000" cy="780.287009" r="13.600000" />
        <circle cx="882.000000" cy="780.287009" r="13.600000" />
        <circle cx="902.000000" cy="780.287009" r="13.600000" />
        <circle cx="922.000000" cy="780.287009" r="13.600000" />
        <circle cx="942.000000" cy="780.287009" r="13.600000" />
        <circle cx="962.000000" cy="780.287009" r="13.600000" />
        <circle cx="982.000000" cy="780.287009" r="13.600000" />
      </g>
    </mask>
  </defs>
  <g id="icon">
    <path d="M240 0 H760 C892.5483399593904 0 1000 107.45166004060954 1000 240 V760 C1000 892.5483399593904 892.5483399593904 1000 760 1000 H240 C107.45166004060954 1000 0 892.5483399593904 0 760 V240 C0 107.45166004060954 107.45166004060954 0 240 0 Z" fill="#09243B" fill-rule="evenodd" />
    <g id="letters">
      <path id="icon-two-and-arrow" d="M 533.76367 260.28125 C 514.10819 259.84453 494.37922 262.43825 476.05469 267.42578 C 439.47372 278.52072 409.69005 302.93342 391.24414 336.25977 C 382.23278 353.58848 374.84298 374.42809 380.45508 393.84961 C 384.13595 402.34701 391.01971 408.00107 399.13086 412.18359 C 411.7677 417.03859 426.11375 416.59582 438.73828 411.93164 C 447.5496 406.46727 453.90169 399.66696 456.62695 389.52148 C 460.83103 373.17915 468.06575 359.32138 481.30273 348.57422 C 499.20236 335.75118 520.66235 332.7368 542.25977 335.76367 C 560.10245 339.25988 574.74994 347.02119 585.68945 361.80469 C 593.33896 374.18762 594.44555 387.96182 592.17578 402.16211 C 585.8035 428.37293 585.80475 428.37387 517.93945 472.50586 C 506.05356 480.23076 494.18028 487.95182 482.53906 496.04297 C 474.75414 501.46887 466.90051 506.77119 458.98633 512.00781 C 436.0409 527.18679 414.06309 541.33635 395.56641 561.95508 C 370.93596 591.04658 370.52273 626.55303 372.76172 662.85547 C 374.30054 664.39429 374.30019 664.39453 378.67969 664.59766 C 383.68395 664.60843 383.68436 664.60825 384.67383 664.61133 C 388.20082 664.62518 391.72496 664.63755 395.25195 664.64062 C 397.84641 664.64216 400.44111 664.64619 403.03711 664.65234 C 410.08955 664.67389 417.14329 664.69152 424.19727 664.69922 C 428.69833 664.7023 433.19815 664.70674 437.69922 664.71289 C 451.68099 664.73443 465.66276 664.75361 479.64453 664.75977 C 495.91608 664.76592 512.18744 664.78155 528.45898 664.82617 C 541.12044 664.86156 553.7819 664.88447 566.44336 664.89062 C 573.9913 664.89063 581.5419 664.88903 589.08984 664.91211 C 596.30078 664.93827 603.50935 664.96082 610.71875 664.95312 C 613.38707 664.94697 616.05587 664.94336 618.72266 664.94336 C 624.28407 664.97573 629.68656 665.09082 634.96484 664.85547 L 832 664.85547 L 832 688.0625 L 921 627.30859 L 832 566.55664 L 832 589.76172 L 638.61719 589.76172 C 637.17915 589.64672 635.71128 589.58547 634.21094 589.57422 C 630.41773 589.64347 630.41738 589.6424 629.66797 589.65625 C 624.53291 589.65317 619.40069 589.6614 614.26562 589.7168 C 612.77182 589.73441 611.27907 589.74934 609.78516 589.76172 L 597.42969 589.76172 L 597.42969 589.81641 C 589.7881 589.84083 582.14667 589.88379 574.50586 589.95117 C 564.56658 590.03888 554.62678 590.0928 544.6875 590.13281 C 524.13494 590.21283 503.58381 590.33896 483.03125 590.50977 C 480.89998 590.52823 480.89862 590.52817 480.47852 590.53125 C 483.55617 585.91477 483.55587 585.91471 486.22266 583.79883 C 488.90945 581.98763 488.91051 581.98745 489.44141 581.62891 C 490.66631 580.7964 491.85541 579.98757 493.04492 579.17969 C 496.28415 577.01302 496.28368 577.01373 496.92383 576.58594 C 500.96632 573.85298 505.01077 571.12382 509.0625 568.40625 C 512.17862 566.32268 512.17939 566.32256 512.79492 565.91016 C 517.26367 562.91098 521.7342 559.91513 526.2168 556.9375 C 531.90122 553.16584 537.57943 549.38542 543.25 545.59375 C 545.98911 543.76255 548.72964 541.93277 551.46875 540.10156 C 553.32457 538.86281 555.17933 537.62352 557.03516 536.38477 C 565.29096 530.85884 573.52172 525.29321 581.91602 519.97656 C 600.79741 508.13376 620.78912 495.06078 636.00195 478.62305 C 637.01296 477.432 637.99521 476.27634 638.97852 475.11914 C 663.35506 446.72473 674.019 417.06493 673.34961 379.66992 C 672.08469 352.385 659.70017 323.04764 639.5 304.43555 C 638.27663 303.34606 637.08836 302.28764 635.90039 301.23047 C 632.1872 297.62808 628.46265 294.08671 624.58789 290.6582 C 599.07897 270.15335 566.52281 261.00911 533.76367 260.28125 z " fill="#60CDD6" mask="url(#icon-shadow-mask)" />
      <g id="letter-p" transform="translate(-10 0)">
        <path d="M90 740 V505 A155 155 0 1 1 170 640.646600 V740 A40 40 0 0 1 90 740 Z M166 505 A79 79 0 1 0 324 505 A79 79 0 1 0 166 505 Z" fill="#FFFFFF" fill-rule="evenodd" />
      </g>
      <g id="letter-r" transform="translate(-10 0)">
        <path d="M710 627 V495 C710 419 769 360 845 360 H910 C922 360 931 369 931 381 V409 C931 421 922 430 910 430 H845 C812 430 786 459 786 495 V627 C786 648 769 665 748 665 C727 665 710 648 710 627 Z" fill="#FFFFFF" fill-rule="evenodd" />
      </g>
    </g>
  </g>
</svg>